# xmcd
#
# Track frame offsets:
# 182
# 12595
# 27312
# 45275
# 61947
# 79770
# 98077
# 111072
# 126430
# 141060
# 153020
# 166120
#
# Disc length: 2546 seconds
#
#
# Revision: 0
# Processed by: cddbd v1.5.2PL0 Copyright (c) Steve Scherf et al.
# Submitted via: FreeRIP 2.945 
#
DISCID=8b09f00c
DTITLE=AMELHINHA - AMELHINHA  - SÓ FORRÓ
DYEAR=1900
DGENRE=FORRÓ
TTITLE0=FOGO NA CINTURA
TTITLE1=VOCÊ E TU
TTITLE2=BRILHO DA LUA, CABOCLO SONHADOR, CAPRICHO DOS DEUSES
TTITLE3=TREM DE SAÃO JOÃO, MINHA FOGUEIRA, OLHA PRO CÉU
TTITLE4=XOTE PRA LUA
TTITLE5=PISA NA FULÔ, O CHEIRO DA CAROLINA, PEBA NA PIMENTA
TTITLE6=FORRÓ DO PEGA RELA
TTITLE7=A VIDA DO VIAJANTE
TTITLE8=GEMEDERA
TTITLE9=RANCHEIRA
TTITLE10=COBRA DE CHIFRE
TTITLE11=JESUS É VERBO, NÃO SUBSTANTIVO
EXTD=
EXTT0=
EXTT1=
EXTT2=
EXTT3=
EXTT4=
EXTT5=
EXTT6=
EXTT7=
EXTT8=
EXTT9=
EXTT10=
EXTT11=
PLAYORDER=
